<svg width="18" height="16" viewBox="0 0 18 16" fill="none" xmlns="http://www.w3.org/2000/svg">
<path d="M3.16602 6.33334V11.3426C3.16602 11.6418 3.16602 11.7913 3.21156 11.9234C3.25184 12.0401 3.31757 12.1465 3.404 12.2347C3.50174 12.3345 3.63552 12.4014 3.90306 12.5352L8.40306 14.7852C8.62169 14.8945 8.73102 14.9492 8.84568 14.9707C8.94724 14.9897 9.05146 14.9897 9.15301 14.9707C9.26768 14.9492 9.37701 14.8945 9.59563 14.7852L14.0956 12.5352C14.3632 12.4014 14.497 12.3345 14.5947 12.2347C14.6811 12.1465 14.7469 12.0401 14.7871 11.9234C14.8327 11.7913 14.8327 11.6418 14.8327 11.3426V6.33334M0.666016 5.08334L8.70121 1.06574C8.81053 1.01108 8.86518 0.983752 8.92252 0.972996C8.9733 0.963469 9.0254 0.963469 9.07618 0.972996C9.13351 0.983752 9.18817 1.01108 9.29749 1.06574L17.3327 5.08334L9.29749 9.10093C9.18817 9.15559 9.13351 9.18292 9.07618 9.19368C9.0254 9.20321 8.9733 9.20321 8.92252 9.19368C8.86518 9.18292 8.81053 9.15559 8.70121 9.10093L0.666016 5.08334Z" stroke="#667085" stroke-width="1.2" stroke-linecap="round" stroke-linejoin="round"/>
</svg>
