<svg width="40" height="40" viewBox="0 0 40 40" fill="none" xmlns="http://www.w3.org/2000/svg">
<path d="M7.75 3.9993C7.75 2.20437 9.20508 0.749298 11 0.749298H27C27.1212 0.749298 27.2375 0.797457 27.3232 0.883183L38.1161 11.6761C38.2018 11.7618 38.25 11.8781 38.25 11.9993V35.9993C38.25 37.7942 36.7949 39.2493 35 39.2493H11C9.20507 39.2493 7.75 37.7942 7.75 35.9993V3.9993Z" fill="white" stroke="#D0D5DD" stroke-width="1.5"/>
<path d="M27 0.499298V7.9993C27 10.2084 28.7909 11.9993 31 11.9993H38.5" stroke="#D0D5DD" stroke-width="1.5"/>
<rect x="1" y="17.9993" width="26" height="16" rx="2" fill="#099250"/>
<path d="M6.38636 22.7266L7.85298 25.2053H7.9098L9.38352 22.7266H11.12L8.90057 26.3629L11.1697 29.9993H9.40128L7.9098 27.5171H7.85298L6.36151 29.9993H4.60014L6.87642 26.3629L4.64276 22.7266H6.38636ZM12.093 29.9993V22.7266H13.6307V28.7315H16.7486V29.9993H12.093ZM21.7122 24.8182C21.6838 24.5317 21.5618 24.3092 21.3464 24.1506C21.131 23.992 20.8386 23.9126 20.4693 23.9126C20.2183 23.9126 20.0065 23.9482 19.8336 24.0192C19.6608 24.0878 19.5282 24.1837 19.4359 24.3068C19.3459 24.4299 19.301 24.5696 19.301 24.7259C19.2962 24.8561 19.3234 24.9697 19.3826 25.0668C19.4442 25.1638 19.5282 25.2479 19.6348 25.3189C19.7413 25.3876 19.8644 25.4479 20.0041 25.5C20.1438 25.5497 20.2929 25.5923 20.4515 25.6278L21.1049 25.7841C21.4222 25.8551 21.7134 25.9498 21.9785 26.0682C22.2437 26.1866 22.4733 26.3322 22.6674 26.505C22.8616 26.6778 23.0119 26.8814 23.1184 27.1158C23.2273 27.3502 23.283 27.6189 23.2853 27.9219C23.283 28.367 23.1693 28.7528 22.9444 29.0796C22.7219 29.4039 22.3999 29.656 21.9785 29.8359C21.5595 30.0135 21.054 30.1023 20.4622 30.1023C19.8751 30.1023 19.3637 30.0123 18.9281 29.8324C18.4949 29.6525 18.1563 29.3861 17.9125 29.0334C17.671 28.6783 17.5443 28.2391 17.5325 27.7159H19.0204C19.037 27.9598 19.1068 28.1634 19.2299 28.3267C19.3554 28.4877 19.5223 28.6096 19.7306 28.6925C19.9413 28.773 20.1793 28.8132 20.4444 28.8132C20.7048 28.8132 20.9309 28.7753 21.1227 28.6996C21.3168 28.6238 21.4672 28.5185 21.5737 28.3835C21.6802 28.2486 21.7335 28.0935 21.7335 27.9183C21.7335 27.755 21.685 27.6177 21.5879 27.5064C21.4932 27.3951 21.3535 27.3004 21.1689 27.2223C20.9866 27.1442 20.7628 27.0732 20.4977 27.0092L19.7058 26.8104C19.0926 26.6612 18.6085 26.428 18.2534 26.1108C17.8983 25.7936 17.7219 25.3662 17.7243 24.8288C17.7219 24.3885 17.8391 24.0038 18.0758 23.6747C18.3149 23.3457 18.6428 23.0888 19.0595 22.9041C19.4761 22.7195 19.9496 22.6271 20.4799 22.6271C21.0197 22.6271 21.4908 22.7195 21.8933 22.9041C22.2981 23.0888 22.613 23.3457 22.8379 23.6747C23.0628 24.0038 23.1788 24.385 23.1859 24.8182H21.7122Z" fill="white"/>
</svg>
